<svg width="38" height="17" viewBox="0 0 38 17" fill="none" xmlns="http://www.w3.org/2000/svg">
<path d="M8.29723 2.9858L9.36729 4.92086C9.5139 5.18647 9.88186 5.43879 10.1845 5.4729L11.9856 5.69931C13.1389 5.84178 13.4363 6.66023 12.6514 7.5175L11.3143 8.96982C11.0911 9.2132 10.9752 9.67751 11.0649 9.99619L11.5334 11.706C11.9019 13.0559 11.2011 13.6155 9.96958 12.9524L8.24921 12.026C7.93589 11.8566 7.4382 11.8812 7.14384 12.0714L5.50612 13.1315C4.33374 13.8892 3.58771 13.3903 3.84496 12.0159L4.17439 10.2765C4.23589 9.95135 4.08844 9.49762 3.84506 9.2744L2.38477 7.93512C1.53255 7.14736 1.76179 6.30775 2.89742 6.06971L4.67062 5.69932C4.96987 5.63432 5.31668 5.36 5.43844 5.08089L6.3469 3.06105C6.84347 1.9728 7.71952 1.93851 8.29723 2.9858Z" fill="#FFBD39"/>
<path d="M24.8627 9.968C24.9094 9.968 24.9467 9.98667 24.9747 10.024C25.0121 10.052 25.0307 10.0893 25.0307 10.136V11.256C25.0307 11.3027 25.0121 11.3447 24.9747 11.382C24.9467 11.41 24.9094 11.424 24.8627 11.424H24.2747C24.2281 11.424 24.2047 11.4473 24.2047 11.494V13.832C24.2047 13.8787 24.1861 13.9207 24.1487 13.958C24.1207 13.986 24.0834 14 24.0367 14H22.7487C22.7021 14 22.6601 13.986 22.6227 13.958C22.5947 13.9207 22.5807 13.8787 22.5807 13.832V11.494C22.5807 11.4473 22.5574 11.424 22.5107 11.424H18.2547C18.2081 11.424 18.1661 11.41 18.1287 11.382C18.1007 11.3447 18.0867 11.3027 18.0867 11.256V10.36C18.0867 10.304 18.1007 10.234 18.1287 10.15L20.7747 4.326C20.8121 4.242 20.8774 4.2 20.9707 4.2H22.3427C22.4081 4.2 22.4501 4.21867 22.4687 4.256C22.4967 4.284 22.4967 4.33067 22.4687 4.396L19.9767 9.884C19.9674 9.90267 19.9674 9.92133 19.9767 9.94C19.9861 9.95867 20.0001 9.968 20.0187 9.968H22.5107C22.5574 9.968 22.5807 9.94467 22.5807 9.898V7.994C22.5807 7.94733 22.5947 7.91 22.6227 7.882C22.6601 7.84467 22.7021 7.826 22.7487 7.826H24.0367C24.0834 7.826 24.1207 7.84467 24.1487 7.882C24.1861 7.91 24.2047 7.94733 24.2047 7.994V9.898C24.2047 9.94467 24.2281 9.968 24.2747 9.968H24.8627ZM27.6062 14.028C27.3169 14.028 27.0789 13.9347 26.8922 13.748C26.7055 13.5613 26.6122 13.3233 26.6122 13.034C26.6122 12.7447 26.7055 12.5067 26.8922 12.32C27.0789 12.1333 27.3169 12.04 27.6062 12.04C27.8955 12.04 28.1289 12.1333 28.3062 12.32C28.4929 12.5067 28.5862 12.7447 28.5862 13.034C28.5862 13.3233 28.4929 13.5613 28.3062 13.748C28.1195 13.9347 27.8862 14.028 27.6062 14.028ZM36.0263 5.936C36.1757 6.328 36.2503 6.78533 36.2503 7.308V11.578C36.2503 12.082 36.1243 12.5253 35.8723 12.908C35.6203 13.2907 35.2657 13.5893 34.8083 13.804C34.3603 14.0093 33.8423 14.112 33.2543 14.112C32.685 14.112 32.1763 14.0093 31.7283 13.804C31.2897 13.5987 30.9443 13.3093 30.6923 12.936C30.4497 12.5627 30.3283 12.1333 30.3283 11.648V11.34C30.3283 11.2933 30.3423 11.256 30.3703 11.228C30.4077 11.1907 30.4497 11.172 30.4963 11.172H31.7843C31.831 11.172 31.8683 11.1907 31.8963 11.228C31.9337 11.256 31.9523 11.2933 31.9523 11.34V11.438C31.9523 11.8113 32.0737 12.1193 32.3163 12.362C32.559 12.5953 32.8717 12.712 33.2543 12.712C33.6557 12.712 33.9823 12.5907 34.2343 12.348C34.4957 12.096 34.6263 11.774 34.6263 11.382V9.842C34.6263 9.814 34.617 9.79533 34.5983 9.786C34.5797 9.77667 34.561 9.78133 34.5423 9.8C34.141 10.192 33.595 10.388 32.9043 10.388C32.3537 10.388 31.8683 10.2713 31.4483 10.038C31.0377 9.80467 30.7157 9.46867 30.4823 9.03C30.221 8.56333 30.0903 7.98467 30.0903 7.294C30.0903 6.72467 30.1837 6.22533 30.3703 5.796C30.5943 5.264 30.949 4.84867 31.4343 4.55C31.9197 4.25133 32.4937 4.102 33.1563 4.102C33.8563 4.102 34.4537 4.26533 34.9483 4.592C35.4523 4.90933 35.8117 5.35733 36.0263 5.936ZM34.4023 8.316C34.5517 8.01733 34.6263 7.65333 34.6263 7.224C34.6263 6.86933 34.5657 6.55667 34.4443 6.286C34.2203 5.77267 33.8003 5.516 33.1843 5.516C32.587 5.516 32.167 5.768 31.9243 6.272C31.7843 6.58 31.7143 6.91133 31.7143 7.266C31.7143 7.686 31.7983 8.04533 31.9663 8.344C32.2277 8.792 32.629 9.016 33.1703 9.016C33.749 9.016 34.1597 8.78267 34.4023 8.316Z" fill="#FFBD39"/>
</svg>
