<svg width="32" height="32" viewBox="0 0 32 32" fill="none" xmlns="http://www.w3.org/2000/svg">
<circle cx="16" cy="16" r="16" fill="#E61C5D"/>
<path d="M11.0575 23.3125C10.2175 23.3125 9.68502 23.0275 9.34752 22.69C8.68752 22.03 8.22252 20.6275 9.70752 17.65L10.36 16.3525C10.4425 16.18 10.4425 15.82 10.36 15.6475L9.70752 14.35C8.21502 11.3725 8.68752 9.96249 9.34752 9.30999C10 8.64999 11.41 8.17749 14.38 9.66999L20.8 12.88C22.3975 13.675 23.275 14.785 23.275 16C23.275 17.215 22.3975 18.325 20.8075 19.12L14.3875 22.33C12.9325 23.0575 11.8525 23.3125 11.0575 23.3125ZM11.0575 9.81249C10.6525 9.81249 10.3375 9.90999 10.1425 10.105C9.59502 10.645 9.81252 12.0475 10.7125 13.84L11.365 15.145C11.605 15.6325 11.605 16.3675 11.365 16.855L10.7125 18.1525C9.81252 19.9525 9.59502 21.3475 10.1425 21.8875C10.6825 22.435 12.085 22.2175 13.885 21.3175L20.305 18.1075C21.4825 17.5225 22.15 16.75 22.15 15.9925C22.15 15.235 21.475 14.4625 20.2975 13.8775L13.8775 10.675C12.7375 10.105 11.755 9.81249 11.0575 9.81249Z" fill="white"/>
<path d="M15.13 16.5625H11.08C10.7725 16.5625 10.5175 16.3075 10.5175 16C10.5175 15.6925 10.7725 15.4375 11.08 15.4375H15.13C15.4375 15.4375 15.6925 15.6925 15.6925 16C15.6925 16.3075 15.4375 16.5625 15.13 16.5625Z" fill="white"/>
</svg>
