<svg width="50" height="25" viewBox="0 0 50 25" fill="none" xmlns="http://www.w3.org/2000/svg">
<rect width="49.5547" height="25" rx="12.5" fill="#FFBD39" fill-opacity="0.12"/>
<path d="M14.2972 6.9858L15.3673 8.92086C15.5139 9.18647 15.8819 9.43879 16.1845 9.4729L17.9856 9.69931C19.1389 9.84177 19.4363 10.6602 18.6514 11.5175L17.3143 12.9698C17.0911 13.2132 16.9752 13.6775 17.0649 13.9962L17.5334 15.706C17.9019 17.0559 17.2011 17.6155 15.9696 16.9524L14.2492 16.026C13.9359 15.8566 13.4382 15.8812 13.1438 16.0714L11.5061 17.1315C10.3337 17.8892 9.58771 17.3903 9.84496 16.0159L10.1744 14.2765C10.2359 13.9513 10.0884 13.4976 9.84506 13.2744L8.38477 11.9351C7.53255 11.1474 7.76179 10.3077 8.89742 10.0697L10.6706 9.69932C10.9699 9.63432 11.3167 9.36 11.4384 9.08089L12.3469 7.06105C12.8435 5.9728 13.7195 5.93851 14.2972 6.9858Z" fill="#FFBD39"/>
<path d="M30.8627 13.968C30.9094 13.968 30.9467 13.9867 30.9747 14.024C31.0121 14.052 31.0307 14.0893 31.0307 14.136V15.256C31.0307 15.3027 31.0121 15.3447 30.9747 15.382C30.9467 15.41 30.9094 15.424 30.8627 15.424H30.2747C30.2281 15.424 30.2047 15.4473 30.2047 15.494V17.832C30.2047 17.8787 30.1861 17.9207 30.1487 17.958C30.1207 17.986 30.0834 18 30.0367 18H28.7487C28.7021 18 28.6601 17.986 28.6227 17.958C28.5947 17.9207 28.5807 17.8787 28.5807 17.832V15.494C28.5807 15.4473 28.5574 15.424 28.5107 15.424H24.2547C24.2081 15.424 24.1661 15.41 24.1287 15.382C24.1007 15.3447 24.0867 15.3027 24.0867 15.256V14.36C24.0867 14.304 24.1007 14.234 24.1287 14.15L26.7747 8.326C26.8121 8.242 26.8774 8.2 26.9707 8.2H28.3427C28.4081 8.2 28.4501 8.21867 28.4687 8.256C28.4967 8.284 28.4967 8.33067 28.4687 8.396L25.9767 13.884C25.9674 13.9027 25.9674 13.9213 25.9767 13.94C25.9861 13.9587 26.0001 13.968 26.0187 13.968H28.5107C28.5574 13.968 28.5807 13.9447 28.5807 13.898V11.994C28.5807 11.9473 28.5947 11.91 28.6227 11.882C28.6601 11.8447 28.7021 11.826 28.7487 11.826H30.0367C30.0834 11.826 30.1207 11.8447 30.1487 11.882C30.1861 11.91 30.2047 11.9473 30.2047 11.994V13.898C30.2047 13.9447 30.2281 13.968 30.2747 13.968H30.8627ZM33.6062 18.028C33.3169 18.028 33.0789 17.9347 32.8922 17.748C32.7055 17.5613 32.6122 17.3233 32.6122 17.034C32.6122 16.7447 32.7055 16.5067 32.8922 16.32C33.0789 16.1333 33.3169 16.04 33.6062 16.04C33.8955 16.04 34.1289 16.1333 34.3062 16.32C34.4929 16.5067 34.5862 16.7447 34.5862 17.034C34.5862 17.3233 34.4929 17.5613 34.3062 17.748C34.1195 17.9347 33.8862 18.028 33.6062 18.028ZM42.0263 9.936C42.1757 10.328 42.2503 10.7853 42.2503 11.308V15.578C42.2503 16.082 42.1243 16.5253 41.8723 16.908C41.6203 17.2907 41.2657 17.5893 40.8083 17.804C40.3603 18.0093 39.8423 18.112 39.2543 18.112C38.685 18.112 38.1763 18.0093 37.7283 17.804C37.2897 17.5987 36.9443 17.3093 36.6923 16.936C36.4497 16.5627 36.3283 16.1333 36.3283 15.648V15.34C36.3283 15.2933 36.3423 15.256 36.3703 15.228C36.4077 15.1907 36.4497 15.172 36.4963 15.172H37.7843C37.831 15.172 37.8683 15.1907 37.8963 15.228C37.9337 15.256 37.9523 15.2933 37.9523 15.34V15.438C37.9523 15.8113 38.0737 16.1193 38.3163 16.362C38.559 16.5953 38.8717 16.712 39.2543 16.712C39.6557 16.712 39.9823 16.5907 40.2343 16.348C40.4957 16.096 40.6263 15.774 40.6263 15.382V13.842C40.6263 13.814 40.617 13.7953 40.5983 13.786C40.5797 13.7767 40.561 13.7813 40.5423 13.8C40.141 14.192 39.595 14.388 38.9043 14.388C38.3537 14.388 37.8683 14.2713 37.4483 14.038C37.0377 13.8047 36.7157 13.4687 36.4823 13.03C36.221 12.5633 36.0903 11.9847 36.0903 11.294C36.0903 10.7247 36.1837 10.2253 36.3703 9.796C36.5943 9.264 36.949 8.84867 37.4343 8.55C37.9197 8.25133 38.4937 8.102 39.1563 8.102C39.8563 8.102 40.4537 8.26533 40.9483 8.592C41.4523 8.90933 41.8117 9.35733 42.0263 9.936ZM40.4023 12.316C40.5517 12.0173 40.6263 11.6533 40.6263 11.224C40.6263 10.8693 40.5657 10.5567 40.4443 10.286C40.2203 9.77267 39.8003 9.516 39.1843 9.516C38.587 9.516 38.167 9.768 37.9243 10.272C37.7843 10.58 37.7143 10.9113 37.7143 11.266C37.7143 11.686 37.7983 12.0453 37.9663 12.344C38.2277 12.792 38.629 13.016 39.1703 13.016C39.749 13.016 40.1597 12.7827 40.4023 12.316Z" fill="#FFBD39"/>
</svg>
